<svg width="494" height="517" viewBox="0 0 494 517" fill="none" xmlns="http://www.w3.org/2000/svg">
<path d="M26.0957 514.478C15.6808 511.231 5.74757 501.388 1.93302 490.535C0.111126 485.352 0 481.827 0 429.234C0 396.408 0.431262 369.944 1.04745 364.959C9.64946 295.37 52.3557 234.97 114.5 204.501C125.198 199.256 138.988 193.641 139.62 194.272C139.793 194.445 140.112 210.538 140.331 230.035C140.756 267.986 141.002 270.218 146.661 287.485C161.781 333.619 203.213 367.845 251.383 373.992C255.847 374.562 272.762 374.98 288.971 374.921C308.591 374.85 318.559 375.162 318.79 375.855C318.981 376.427 317.477 381.078 315.449 386.191C288.127 455.065 226.704 503.817 153.872 514.436C139.167 516.58 32.9489 516.615 26.0957 514.478ZM246.051 348.861C207.895 340.854 177.735 311.952 166.87 272.985C164.589 264.804 164.5 263.205 164.5 230.324V196.162L167.5 191.913C171.616 186.082 176.343 183.897 187.192 182.809C192.171 182.31 219.253 182.032 247.373 182.193L298.5 182.485L306.055 186.093C315.421 190.566 322.848 197.847 327.277 206.898L330.5 213.485V273.485C330.5 338.129 330.523 337.835 325.205 344.153C319.768 350.615 317.786 350.947 285 350.892C259.556 350.85 254.201 350.571 246.051 348.861ZM352 348.65C352 348.353 352.786 345.044 353.746 341.298C355.314 335.182 355.492 328.251 355.496 273.486C355.5 216.585 355.374 212.082 353.621 206.486C347.663 187.46 334.842 172.372 317.5 163.978C303.034 156.976 300.553 156.77 236.803 157.253C189.031 157.616 179.591 157.925 174.5 159.297C171.2 160.187 167.937 160.93 167.25 160.95C165.241 161.007 165.531 114.073 167.616 101.912C172.106 75.7142 187.017 51.8966 208.648 36.3685C216.545 30.7004 231.598 23.591 240.317 21.4123C248.462 19.377 250 18.0503 250 13.062C250 8.70503 253.313 3.14585 257.03 1.26489C258.389 0.577488 261.644 0.008448 264.265 0.00033713C270.802 -0.0196944 275.622 4.313 276.903 11.3613C277.39 14.0429 278.399 16.6235 279.144 17.096C279.89 17.5684 302.855 17.9619 330.179 17.9703C384.685 17.9869 383 18.1755 383 12.062C383 8.63965 386.707 2.94643 390.03 1.26489C391.389 0.577488 394.644 0.008448 397.265 0.00033713C401.258 -0.0121353 402.602 0.511542 405.57 3.23559C408.527 5.95047 409.238 7.43221 409.888 12.2348C410.315 15.3968 410.88 18.1993 411.144 18.4624C411.407 18.7256 415.644 20.0931 420.561 21.5014C457.039 31.9504 484.582 61.6802 492.163 98.7901C493.961 107.591 494.05 112.592 493.737 186.803C493.407 265.232 493.398 265.511 491.124 273.486C486.262 290.531 478.128 304.663 465.703 317.648C452.243 331.715 437.035 340.69 418.119 345.73C409.144 348.121 406.608 348.323 380.25 348.742C364.713 348.989 352 348.948 352 348.65ZM276.132 87.1854C289.006 80.46 294.661 64.3018 288.626 51.4856C285.727 45.3287 281.542 40.7355 279.233 41.1766C277.721 41.4655 277.436 43.2339 277 55.0475C276.438 70.27 275.403 73.0835 269.454 75.5691C264.891 77.4758 261.152 77.3519 257.062 75.1583C251.266 72.0499 250 68.2971 250 54.2198C250 40.113 249.122 38.5972 243.849 43.6057C238.39 48.7907 236.537 53.5637 236.517 62.4856C236.502 69.4918 236.866 71.1469 239.449 75.8091C244.749 85.3776 252.461 89.8851 263.636 89.9464C269.556 89.9805 271.685 89.5084 276.132 87.1854ZM408.759 87.4182C418.699 82.4649 423.942 73.8565 423.978 62.4318C424.004 54.264 420.95 46.8037 415.81 42.4794C410.83 38.2886 410.001 40.0541 409.996 54.8579C409.993 69.2589 408.877 72.3924 402.717 75.3155C396.08 78.4647 388.692 76.4593 385.016 70.511C383.273 67.6904 383 65.5371 383 54.5861C383 43.6494 382.771 41.8348 381.32 41.2781C378.824 40.3202 372.331 48.1321 370.501 54.2947C368.595 60.7109 368.61 64.3083 370.567 70.899C375.157 86.3566 394.286 94.6304 408.759 87.4182ZM61.5 143.486C46.2064 140.07 36.3463 134.514 24.3951 122.578C16.6848 114.878 14.5797 112.03 10.651 103.985C3.34849 89.0317 2.77151 85.8893 2.29682 58.4855C1.81651 30.7565 2.15346 29.3131 10.074 25.1707C14.406 22.9051 14.9882 22.865 37.5 23.2811C63.7122 23.7656 67.2512 24.4228 81.6332 31.4769C96.4509 38.7447 110.236 53.1945 116.939 68.4855C121.845 79.6778 122.985 87.8756 122.993 112.001C123.004 145.748 123.728 145.025 90.0156 144.906C75.1234 144.853 65.4685 144.373 61.5 143.486Z" fill="black"/>
</svg>
